<?xml version="1.0" encoding="UTF-8"?>
<svg version="1.1" xmlns="http://www.w3.org/2000/svg" width="512" height="512">
<path d="M0 0 C1.10922488 -0.00397774 1.10922488 -0.00397774 2.24085835 -0.00803584 C4.73839294 -0.01574356 7.23587848 -0.01628857 9.73342419 -0.01688576 C11.53427592 -0.02089939 13.33512676 -0.02533745 15.13597649 -0.03016531 C20.10010187 -0.04214738 25.06421752 -0.04778302 30.02835453 -0.05234647 C35.37612128 -0.05829624 40.72387636 -0.0699075 46.07163525 -0.08063698 C58.99302707 -0.10517317 71.91442276 -0.11978881 84.83583072 -0.13269705 C88.48348987 -0.13640773 92.13114863 -0.14038105 95.7788074 -0.14444971 C118.41637465 -0.16968216 141.05394248 -0.19174147 163.69152069 -0.20417786 C168.93637946 -0.20710768 174.1812382 -0.21006933 179.42609692 -0.21308327 C181.38153935 -0.21420234 181.38153935 -0.21420234 183.37648567 -0.21534403 C204.50812437 -0.22800549 225.63967907 -0.26123874 246.77127848 -0.3028851 C268.45182092 -0.34526422 290.1323203 -0.36886813 311.81290406 -0.37409842 C323.99183424 -0.37751683 336.1706331 -0.38932281 348.34952259 -0.42220116 C358.71857473 -0.45014739 369.08746864 -0.46122482 379.45655552 -0.4500057 C384.7494676 -0.44480539 390.04204802 -0.44779483 395.3349123 -0.47247124 C400.1778508 -0.49486216 405.02021745 -0.49430327 409.86316528 -0.47526737 C411.61755271 -0.47245307 413.37197808 -0.47814471 415.12630419 -0.4930803 C417.50761252 -0.51211838 419.88686732 -0.50044612 422.26812744 -0.48101807 C423.29484644 -0.5002919 423.29484644 -0.5002919 424.34230724 -0.5199551 C429.82987872 -0.42127703 432.1267388 1.35739605 435.82282543 5.13701439 C437.09137459 8.94266187 436.74091231 12.33067287 436.48453712 16.2680645 C436.43564347 17.07148388 436.38674982 17.87490327 436.33637455 18.7026687 C435.8191663 26.83390959 435.05552792 34.93488527 434.23543835 43.04021263 C434.07480211 44.65725996 433.91450903 46.27434141 433.75452369 47.89145327 C433.31950937 52.27844953 432.87965265 56.66494801 432.43890131 61.0513711 C431.96227234 65.80356303 431.49022697 70.55621069 431.0175581 75.30879784 C430.09329567 84.59451409 429.16476563 93.87979871 428.23462004 103.1649273 C427.47865386 110.71195256 426.72417105 118.25912475 425.97072697 125.80640221 C425.86320081 126.88346704 425.75567466 127.96053188 425.64489014 129.07023504 C425.42641792 131.2586599 425.20794792 133.44708497 424.98948013 135.63551027 C422.94502865 156.11311247 420.89558713 176.59021293 418.84451871 197.06715328 C416.96906095 215.7923015 415.09942401 234.51802546 413.2325846 253.24403471 C411.31304944 272.49818354 409.38986487 291.75196451 407.46261734 311.00534296 C407.24465257 313.18294565 407.02669332 315.36054889 406.80873966 317.53815269 C406.70151577 318.6094388 406.59429189 319.6807249 406.48381879 320.78447422 C405.72943834 328.32395403 404.97742539 335.8636678 404.22636127 343.40347862 C403.31129459 352.58918974 402.39273603 361.77454356 401.46969313 370.95945674 C400.99911169 375.64299295 400.5301094 380.32667279 400.0654192 385.0107975 C399.63970948 389.30155296 399.20940054 393.59182179 398.77548014 397.88175446 C398.61964689 399.43033679 398.46546885 400.97908681 398.31315119 402.52801889 C396.14944659 424.5040076 396.14944659 424.5040076 392.5606184 428.92168236 C387.30271778 432.53714279 380.96997746 434.41554527 375.01813793 436.58232689 C373.60847852 437.10578805 372.19923276 437.63036432 370.79036999 438.15596581 C367.76519816 439.28197631 364.73737156 440.40039925 361.70719433 441.51286888 C356.90129864 443.27728626 352.10148041 445.05782418 347.30256176 446.84111595 C342.28815604 448.70354469 337.27327544 450.5646507 332.2561903 452.4198513 C320.39268403 456.80679717 308.54253409 461.22822676 296.70173168 465.67607689 C295.88910114 465.98128887 295.0764706 466.28650085 294.2392149 466.60096169 C290.22156469 468.11006198 286.20411034 469.6196827 282.18677807 471.12962914 C277.6070678 472.85084485 273.02686534 474.57074621 268.44636059 476.28984642 C267.3628532 476.69662148 267.3628532 476.69662148 266.25745678 477.11161423 C262.78287496 478.41558186 259.30741273 479.71709871 255.82984447 481.0130825 C250.1795068 483.11985599 244.53608391 485.23708019 238.92682934 487.45146751 C238.0611282 487.78744957 237.19542706 488.12343163 236.30349255 488.46959496 C234.7938157 489.05684357 233.28873943 489.65620315 231.79076672 490.27269554 C220.0007751 494.81052272 209.33237082 490.4512661 197.98395824 486.61675072 C196.18969777 486.02263949 194.39501297 485.42980846 192.5999403 484.83815575 C187.74639432 483.23403198 182.89931885 481.61114861 178.05345154 479.98399758 C172.97310229 478.28084037 167.88779044 476.59261806 162.80323315 474.90207481 C154.26922642 472.06193918 145.73943611 469.20941617 137.21198559 466.34966087 C127.35986608 463.04585517 117.50109117 459.76256069 107.63856339 456.48996907 C98.13890004 453.3371848 88.64437613 450.16918611 79.15201092 446.99450302 C75.11716358 445.64541156 71.08055296 444.30180051 67.04240704 442.96261597 C62.28743933 441.38500455 57.53710733 439.7941487 52.79000187 438.19304085 C51.04929639 437.60831382 49.30705041 437.02814957 47.56317616 436.45294189 C45.17920721 435.6657597 42.80142824 434.8620839 40.42444897 434.05408287 C39.73670367 433.83129923 39.04895838 433.60851559 38.34037232 433.37898093 C33.86190601 431.83025946 29.49794758 430.18744468 26.82282543 426.13701439 C25.59906752 421.8602484 25.22798812 417.55684152 24.82282543 413.13701439 C24.60660354 411.20727399 24.39035586 409.2775363 24.17311259 407.34791062 C23.77382033 403.71312504 23.41863619 400.07395363 23.05703259 396.43526268 C22.88988901 394.77908265 22.72244869 393.12293254 22.55474013 391.46680963 C22.09816447 386.94937398 21.64585866 382.43151982 21.19431555 377.91357875 C20.70533933 373.02858177 20.21240212 368.14398418 19.72002697 363.25932884 C18.64625636 352.59918584 17.57760292 341.93853362 16.50994229 331.27777719 C15.84309208 324.61955884 15.1750953 317.96145583 14.50685215 311.30337715 C12.65587485 292.8596175 10.80595215 274.41575305 8.96069336 255.97142029 C8.84280759 254.79309329 8.72492182 253.6147663 8.60346375 252.40073242 C8.36450832 250.01220165 8.12555396 247.62367078 7.88660065 245.2351398 C7.76798891 244.04953088 7.64937717 242.86392195 7.52717113 241.64238548 C7.40841524 240.45532727 7.28965934 239.26826905 7.16730478 238.04523937 C5.2397466 218.77989204 3.30421507 199.51535493 1.3651853 180.25115915 C-0.62663734 160.46143913 -2.61218169 140.67109768 -4.59128553 120.88010156 C-5.70220085 109.77237098 -6.8157767 98.66492163 -7.93619823 87.55814552 C-8.88932555 78.10937243 -9.83668532 68.66004347 -10.77649399 59.20993598 C-11.25616488 54.38840307 -11.73856578 49.56718431 -12.22828007 44.74666023 C-12.67640381 40.33487001 -13.11676606 35.92237668 -13.55093602 31.50919203 C-13.70942297 29.91226749 -13.87076016 28.31562273 -14.03522231 26.71930249 C-14.25830416 24.54988627 -14.47097977 22.37968741 -14.6811142 20.20898438 C-14.80192028 19.00358431 -14.92272636 17.79818424 -15.04719323 16.55625689 C-15.23810069 11.53431357 -15.0792244 7.52015747 -12.30217457 3.26201439 C-8.64582756 -0.39433262 -4.8596037 -0.00841749 0 0 Z M7.82282543 21.13701439 C8.69001225 35.01686224 8.69001225 35.01686224 9.91098779 48.85839522 C9.97952608 49.54016289 10.04806437 50.22193055 10.11867958 50.92435785 C10.18982929 51.63154287 10.26097901 52.33872789 10.33428478 53.06734276 C10.48658525 54.60302733 10.63863194 56.13873708 10.79045063 57.67446935 C11.20354709 61.84558419 11.62026892 66.01632963 12.03766358 70.18701625 C12.48900906 74.7033836 12.93695424 79.22008847 13.38538647 83.73674583 C14.36365227 93.58331301 15.3462727 103.42944264 16.32973266 113.27549219 C16.94408185 119.42650829 17.55743 125.57762393 18.17055988 131.72876167 C19.86978178 148.77478863 21.56986801 165.82072863 23.27393532 182.86627197 C23.38269869 183.95421683 23.49146206 185.04216169 23.60352129 186.16307458 C23.82398211 188.36826487 24.04444406 190.57345505 24.26490711 192.77864511 C24.3743351 193.87321069 24.48376309 194.96777626 24.59650707 196.09551048 C24.7060697 197.19141606 24.81563232 198.28732164 24.92851502 199.41643648 C26.70756073 217.21317759 28.47996541 235.01057321 30.24945544 252.80826671 C32.06811915 271.09970526 33.89194768 289.39062258 35.72109944 307.68101537 C36.74728844 317.94341095 37.77129545 328.20601366 38.78968143 338.46918678 C39.65575173 347.19699994 40.52657087 355.92432282 41.40361815 364.65104003 C41.85091448 369.10309071 42.29595596 373.55533669 42.73498249 378.00821114 C43.13680079 382.08313173 43.54499644 386.15736087 43.95830632 390.23113148 C44.10676341 391.70560925 44.25287307 393.18032563 44.39640933 394.65529056 C44.59176462 396.65915923 44.79649296 398.66210751 45.00168037 400.66499329 C45.11277608 401.77801398 45.22387178 402.89103467 45.33833402 404.03778327 C45.84572882 407.2835245 46.55314868 410.10545912 47.82282543 413.13701439 C50.77398143 414.91974925 50.77398143 414.91974925 54.50805187 416.02921104 C55.20310921 416.26780564 55.89816656 416.50640024 56.61428624 416.75222498 C58.94779362 417.54666515 61.29119661 418.30624598 63.63605785 419.06645775 C65.31038123 419.62851776 66.98401156 420.1926459 68.65699291 420.75868797 C73.20580665 422.29075011 77.76411386 423.79248845 82.32496715 425.28826785 C87.09544571 426.85749731 91.85762881 428.45152987 96.62099743 430.04218102 C104.62464718 432.71061745 112.63441856 435.35996547 120.64826488 437.99761009 C129.91050416 441.04634637 139.16331253 444.12238495 148.41135997 447.21388143 C157.30734932 450.18721583 166.20892188 453.14345765 175.11343861 456.09114838 C178.90247091 457.34561765 182.68960291 458.60559929 186.47534275 459.86996841 C190.93671394 461.35893602 195.40282421 462.8327219 199.87301159 464.29500008 C201.5117624 464.83365633 203.14885631 465.37738408 204.78410816 465.92657089 C207.0193161 466.67627652 209.25984666 467.40718804 211.50268078 468.13370323 C212.75464339 468.54716971 214.00660601 468.9606362 215.29650688 469.38663197 C221.47385711 470.70114028 226.55541943 469.06583376 232.33820629 466.87822533 C232.95265763 466.64804301 233.56710897 466.4178607 234.20018005 466.18070316 C236.23194972 465.4176594 238.25973398 464.64456013 240.28766918 463.87138939 C241.73935417 463.32396491 243.19128488 462.77719166 244.64344311 462.23102379 C248.54317937 460.76237335 252.43961585 459.28514881 256.33551693 457.80636024 C260.39547535 456.26706098 264.45848575 454.73586397 268.52131176 453.20415306 C274.29915933 451.02517251 280.07613528 448.84391219 285.85194206 446.65952778 C295.33104547 443.07478438 304.81630614 439.50682213 314.30720043 435.95342064 C314.94352964 435.71514172 315.57985886 435.47686279 316.23547077 435.2313633 C319.32219357 434.07557112 322.40904187 432.92011468 325.49595165 431.76482201 C341.95695786 425.60404111 358.40535089 419.41298527 374.82282543 413.13701439 C376.315261 403.26488981 377.48341039 393.39602629 378.46799755 383.46065331 C378.6220924 381.92807089 378.77644461 380.39551434 378.93102872 378.8629812 C379.35102199 374.69173763 379.76736209 370.52013665 380.18304729 366.34846187 C380.63350972 361.83432478 381.08740017 357.32053215 381.54082775 352.80669212 C382.42676803 343.98157236 383.30949122 335.15613372 384.19099738 326.33057006 C384.90745307 319.1579143 385.62499974 311.98536848 386.34331417 304.81289864 C386.44573156 303.79022162 386.54814894 302.7675446 386.65366989 301.71387737 C386.86175447 299.63609456 387.06984041 297.55831189 387.27792768 295.48052935 C389.22610758 276.0261438 391.17050226 256.57138131 393.11369388 237.11649697 C394.89134802 219.32006794 396.67354018 201.52409684 398.45789655 183.72833867 C400.29160239 165.44003795 402.12238625 147.15144695 403.94994676 128.86253107 C404.97543584 118.60065394 406.00205996 108.33889349 407.03170681 98.07743263 C407.9075649 89.34826412 408.78064323 80.61882302 409.6501341 71.88901789 C410.09371227 67.43619081 410.53856032 62.98350036 410.98685169 58.5311451 C411.39727742 54.45452153 411.80403562 50.37754916 412.20789139 46.30026965 C412.35449827 44.82666245 412.5024373 43.35318704 412.65185447 41.87986214 C412.85509207 39.87384872 413.05295057 37.86729252 413.25056934 35.86071777 C413.41753895 34.19069968 413.41753895 34.19069968 413.58788168 32.48694384 C413.85262663 28.71209597 413.82282543 24.92113468 413.82282543 21.13701439 C279.84282543 21.13701439 145.86282543 21.13701439 7.82282543 21.13701439 Z " fill="#000000" transform="translate(43.17717456817627,-0.13701438903808594)"/>
<path d="M0 0 C1.01361099 -0.00511093 2.02722198 -0.01022186 3.07154846 -0.01548767 C6.41966673 -0.02937877 9.76757901 -0.02842714 13.11572266 -0.02612305 C15.4459338 -0.03001042 17.77614424 -0.03434517 20.10635376 -0.03910828 C24.99035946 -0.04656959 29.87429288 -0.04627995 34.75830078 -0.04101562 C41.01165777 -0.03522313 47.26471836 -0.05214737 53.51802635 -0.0753603 C58.33077723 -0.09010531 63.14345688 -0.09096824 67.95622635 -0.08785057 C70.26146659 -0.08836346 72.56671085 -0.09359508 74.87192917 -0.10366249 C78.098408 -0.11602322 81.32431136 -0.1092368 84.55078125 -0.09765625 C85.49958664 -0.10529999 86.44839203 -0.11294373 87.4259491 -0.12081909 C93.01676689 -0.07655168 96.96604802 0.58878816 101.90478516 3.2746582 C105.27050708 7.1832385 105.15480686 10.25129491 104.90478516 15.2746582 C104.37062356 18.38781596 103.6279462 21.4349412 102.85791016 24.49731445 C102.6454364 25.36102158 102.43296265 26.2247287 102.21405029 27.11460876 C101.76421731 28.93177183 101.31014035 30.74788903 100.85205078 32.56298828 C100.15691583 35.32868101 99.48328996 38.09903021 98.81103516 40.87036133 C98.36962272 42.64216906 97.9269561 44.4136649 97.48291016 46.18481445 C97.18577118 47.41785057 97.18577118 47.41785057 96.88262939 48.67579651 C95.47221517 54.16337364 93.78476702 59.1626715 89.02978516 62.6496582 C84.5383483 63.97066904 81.8033382 63.75849445 77.65478516 61.5246582 C74.90478516 59.2746582 74.90478516 59.2746582 72.90478516 55.2746582 C73.90478516 45.2746582 73.90478516 45.2746582 79.90478516 22.2746582 C54.49478516 22.2746582 29.08478516 22.2746582 2.90478516 22.2746582 C2.90478516 55.6046582 2.90478516 88.9346582 2.90478516 123.2746582 C26.65903817 123.15599767 26.65903817 123.15599767 50.41308594 123.00439453 C55.01977539 122.99084473 55.01977539 122.99084473 57.18014526 122.98832703 C58.68074211 122.98373692 60.18132827 122.97322016 61.68185425 122.95793152 C63.96225035 122.93586947 66.24197359 122.93294352 68.52246094 122.93408203 C69.80597443 122.9274202 71.08948792 122.92075836 72.41189575 122.91389465 C76.25719705 123.31105711 78.63952604 124.23208021 81.90478516 126.2746582 C86.67190066 133.42533146 83.63395396 144.51594673 82.13232422 152.54760742 C81.94367798 153.60286118 81.75503174 154.65811493 81.56066895 155.74534607 C80.94136326 159.19206479 80.30662429 162.6357111 79.67041016 166.0793457 C79.23106503 168.49153287 78.79225125 170.90381686 78.35394287 173.31619263 C77.43627613 178.35218474 76.51064293 183.38663226 75.57958984 188.42016602 C74.38811816 194.86645628 73.21914027 201.31659489 72.05633926 207.76811028 C71.15685171 212.74219583 70.2443115 217.71381924 69.32793427 222.68481827 C68.89145504 225.06264826 68.45931244 227.44127859 68.03162384 229.82070541 C67.43278494 233.14247101 66.8161383 236.46045149 66.19482422 239.77807617 C66.02219055 240.75688248 65.84955688 241.73568878 65.67169189 242.74415588 C64.63627451 248.15444574 63.51010899 252.04644205 59.90478516 256.2746582 C58.02874756 257.47384644 58.02874756 257.47384644 56.06787109 258.11401367 C55.32398132 258.36827621 54.58009155 258.62253876 53.81365967 258.88450623 C52.61353241 259.25938927 52.61353241 259.25938927 51.38916016 259.6418457 C50.12884979 260.06343712 50.12884979 260.06343712 48.84307861 260.49354553 C46.11988148 261.39927843 43.38812551 262.27506454 40.65478516 263.1496582 C38.78312279 263.76324217 36.91202917 264.37856371 35.04150391 264.99560547 C31.35104707 266.2108691 27.65737673 267.41557475 23.96142578 268.61401367 C19.6731714 270.01181312 15.4182702 271.4812917 11.17041016 272.99731445 C10.08663086 273.37968262 9.00285156 273.76205078 7.88623047 274.15600586 C5.96976024 274.83489959 4.05722806 275.52507232 2.14990234 276.22924805 C-3.50467787 278.18643666 -8.22786205 278.76535369 -14.09521484 277.2746582 C-16.92093454 275.57922639 -17.78078123 274.36276399 -18.68896484 271.2199707 C-19.41181779 267.0913683 -19.54743302 265.1190951 -17.50537109 261.3059082 C-14.60696494 257.66058701 -12.60209346 256.84722318 -8.22021484 255.3605957 C-7.1833252 254.99978409 -7.1833252 254.99978409 -6.12548828 254.63168335 C-3.78864297 253.82512437 -1.4426312 253.04986939 0.90478516 252.2746582 C2.65264696 251.6813025 4.40002821 251.08652969 6.14697266 250.49047852 C11.72321959 248.5973098 17.31309909 246.74662067 22.90478516 244.8996582 C24.85540025 244.25280697 26.80592169 243.60567323 28.75634766 242.95825195 C33.47142351 241.39380541 38.18773823 239.83315107 42.90478516 238.2746582 C48.82082394 207.65189366 54.43252838 176.97967442 59.90478516 146.2746582 C59.02861542 146.27101257 58.15244568 146.26736694 57.24972534 146.26361084 C48.98089557 146.22569856 40.71245892 146.16880911 32.44390678 146.09075546 C28.19322063 146.05129501 23.94274119 146.01909966 19.69189453 146.00366211 C15.58731283 145.98848585 11.48329946 145.95402379 7.3789711 145.90634918 C5.81538974 145.89154525 4.25172723 145.88361775 2.68807602 145.88277435 C0.49261076 145.8803998 -1.70129002 145.85328504 -3.89648438 145.82055664 C-5.14446808 145.81167419 -6.39245178 145.80279175 -7.67825317 145.79364014 C-11.77390833 145.1715755 -13.92047201 143.90443195 -17.09521484 141.2746582 C-19.10374607 138.12367749 -19.34944321 135.63715056 -19.36264038 131.93667603 C-19.37117035 130.85442245 -19.37970032 129.77216888 -19.38848877 128.65711975 C-19.3875824 127.47468185 -19.38667603 126.29224396 -19.38574219 125.07397461 C-19.39245941 123.82481766 -19.39917664 122.57566071 -19.40609741 121.28865051 C-19.42184314 117.86496562 -19.42845259 114.44152332 -19.42972898 111.01781893 C-19.4311514 108.87763589 -19.43542271 106.73747822 -19.44072342 104.59730148 C-19.45922239 97.12743264 -19.46739421 89.65763513 -19.46582031 82.18774414 C-19.46461898 75.23033046 -19.4857197 68.27322704 -19.51730764 61.31589186 C-19.54347991 55.33783278 -19.55418721 49.35987497 -19.55290949 43.38175905 C-19.55240013 39.81341223 -19.55806883 36.24534117 -19.57926559 32.67705154 C-19.60226927 28.69595525 -19.59312116 24.71528277 -19.58105469 20.73413086 C-19.5922937 19.55574142 -19.60353271 18.37735199 -19.6151123 17.16325378 C-19.56737049 10.97203405 -19.52251096 6.82640006 -15.09521484 2.2746582 C-10.59936041 -0.60617333 -5.16583949 -0.01343117 0 0 Z " fill="#000000" transform="translate(293.09521484375,101.725341796875)"/>
<path d="M0 0 C1.20882843 -0.00511093 2.41765686 -0.01022186 3.66311646 -0.01548767 C6.96692781 -0.02698229 10.27048777 -0.02946112 13.57430148 -0.02692437 C16.33763704 -0.02585186 19.10094966 -0.03074515 21.86428028 -0.03552979 C28.38593751 -0.04661028 34.90753714 -0.04707053 41.42919922 -0.04101562 C48.14573909 -0.03497547 54.8620695 -0.04729111 61.57857364 -0.06858569 C67.35626444 -0.08622678 73.1338887 -0.09219914 78.91160542 -0.08894795 C82.3574993 -0.08713904 85.80324372 -0.08973195 89.24911308 -0.10366249 C93.09324171 -0.11862279 96.93710543 -0.10924877 100.78125 -0.09765625 C101.91549911 -0.10529999 103.04974823 -0.11294373 104.21836853 -0.12081909 C110.15689609 -0.0812505 114.90491633 -0.02868788 119.95532227 3.2746582 C123.23884931 9.12843809 123.3815037 14.24924917 123.33627319 20.86401367 C123.34095317 21.91861219 123.34563314 22.97321072 123.35045493 24.05976677 C123.36240386 27.58725501 123.35294779 31.1143547 123.34350586 34.6418457 C123.34757159 37.17336249 123.35291347 39.70487751 123.35943604 42.23638916 C123.37169496 48.39473151 123.36990141 54.55293039 123.36119811 60.71127462 C123.3544169 65.71725457 123.35350674 70.72320379 123.35676956 75.72918701 C123.35722926 76.44226072 123.35768896 77.15533443 123.35816259 77.89001644 C123.35912179 79.33871159 123.36009443 80.78740673 123.36108036 82.23610187 C123.36963049 95.81351232 123.35980606 109.39086196 123.34367926 122.96826243 C123.33027641 134.61274251 123.33260461 146.25713287 123.34643555 157.90161133 C123.36249804 171.43116546 123.36880655 184.96066632 123.35959876 198.49022865 C123.35864313 199.93352889 123.35770002 201.37682914 123.35676956 202.82012939 C123.35630674 203.53021994 123.35584391 204.24031049 123.35536706 204.97191894 C123.35277917 209.97061117 123.35714381 214.96926955 123.36420822 219.96795654 C123.37351129 226.69850067 123.366867 233.42884932 123.34952545 240.15938568 C123.34555736 242.63011137 123.34670014 245.10085132 123.35331345 247.57157135 C123.36150592 250.943008 123.3512344 254.31390077 123.33627319 257.68530273 C123.34296536 258.66400267 123.34965752 259.6427026 123.35655248 260.6510601 C123.30793155 266.29631156 122.65835412 270.28459775 119.95532227 275.2746582 C117.69721552 277.46433747 116.18453389 278.25897544 113.01544189 278.29940796 C104.99621002 277.5897197 97.44552224 275.37502913 89.75219727 273.1262207 C88.30129668 272.70826307 86.85022316 272.29090533 85.39898682 271.87411499 C82.37513898 271.00364812 79.35308741 270.12728074 76.33227539 269.24633789 C72.47303028 268.12120931 68.61018208 267.00909667 64.74598312 265.90111732 C61.75574396 265.04254083 58.76722456 264.17810334 55.77921295 263.31180954 C54.35559479 262.89961897 52.93152281 262.48899226 51.5069809 262.08000565 C49.51504612 261.50695111 47.52549014 260.92626793 45.53637695 260.34350586 C43.84288116 259.85172348 43.84288116 259.85172348 42.11517334 259.3500061 C37.06522435 257.63142763 32.64860991 256.07590098 29.95532227 251.2746582 C29.14331055 248.64697266 29.14331055 248.64697266 28.52563477 245.63793945 C28.28981689 244.51484375 28.05399902 243.39174805 27.81103516 242.23461914 C27.5698999 241.03095703 27.32876465 239.82729492 27.08032227 238.5871582 C26.82565186 237.34869141 26.57098145 236.11022461 26.30859375 234.83422852 C25.78055437 232.25940166 25.25676327 229.6837002 24.73706055 227.10717773 C23.99054234 223.44732677 23.21104542 219.79623916 22.42016602 216.14575195 C21.95211697 213.93884811 21.48464239 211.73182233 21.01782227 209.5246582 C20.79433105 208.50927979 20.57083984 207.49390137 20.34057617 206.44775391 C19.15210854 200.68963308 18.64887079 196.04374096 19.95532227 190.2746582 C22.39661128 187.41656374 24.20567597 185.6990257 27.92016602 184.7980957 C31.78563187 184.51616153 33.52808797 185.03615096 37.00610352 186.9777832 C41.73941807 191.16649131 42.06971542 197.7344368 43.14282227 203.6496582 C43.38983887 204.90721924 43.63685547 206.16478027 43.89135742 207.46044922 C44.37763758 209.9446507 44.8544866 212.43072032 45.32104492 214.91870117 C45.84924149 217.71338554 46.40685758 220.4967676 46.99829102 223.27856445 C47.14306885 223.96321777 47.28784668 224.64787109 47.43701172 225.35327148 C47.5668042 225.9667041 47.69659668 226.58013672 47.83032227 227.2121582 C48.64697073 231.14990571 48.95532227 234.18721511 48.95532227 238.2746582 C54.23532227 239.5946582 59.51532227 240.9146582 64.95532227 242.2746582 C76.50532227 245.5746582 88.05532227 248.8746582 99.95532227 252.2746582 C100.28532227 176.3746582 100.61532227 100.4746582 100.95532227 22.2746582 C63.00532227 22.2746582 25.05532227 22.2746582 -14.04467773 22.2746582 C-21.06906798 17.59173137 -21.06906798 17.59173137 -22.04467773 14.2746582 C-22.55030422 10.39818846 -22.18236437 8.55003147 -20.41967773 5.0246582 C-15.14009775 -1.08853967 -7.47366228 -0.01629483 0 0 Z " fill="#000000" transform="translate(132.044677734375,101.725341796875)"/>
</svg>
